<mxfile host="app.diagrams.net" modified="2021-10-27T02:38:02.463Z" agent="5.0 (Windows NT 10.0; Win64; x64) AppleWebKit/537.36 (KHTML, like Gecko) Chrome/94.0.4606.81 Safari/537.36" etag="aOgh0M2NcW8yrdSPEbDp" version="15.2.1" type="github">
  <diagram id="wFE0QG_FPsp0jaGvCLVb" name="Page-1">
    <mxGraphModel dx="1422" dy="762" grid="1" gridSize="10" guides="1" tooltips="1" connect="1" arrows="1" fold="1" page="1" pageScale="1" pageWidth="850" pageHeight="1100" math="0" shadow="0">
      <root>
        <mxCell id="0" />
        <mxCell id="1" parent="0" />
        <mxCell id="NBKUwxWCZF2C23gPfHIj-29" value="" style="rounded=0;whiteSpace=wrap;html=1;fillColor=#f5f5f5;strokeColor=#666666;fontColor=#333333;" vertex="1" parent="1">
          <mxGeometry x="10" y="60" width="690" height="550" as="geometry" />
        </mxCell>
        <mxCell id="NBKUwxWCZF2C23gPfHIj-16" value="&lt;font style=&quot;font-size: 30px&quot;&gt;mars-cli&lt;/font&gt;" style="rounded=1;whiteSpace=wrap;html=1;fillColor=#ffe6cc;strokeColor=#d79b00;" vertex="1" parent="1">
          <mxGeometry x="40" y="170" width="630" height="60" as="geometry" />
        </mxCell>
        <mxCell id="NBKUwxWCZF2C23gPfHIj-17" value="core" style="rounded=1;whiteSpace=wrap;html=1;fillColor=#dae8fc;strokeColor=#6c8ebf;" vertex="1" parent="1">
          <mxGeometry x="160" y="260" width="120" height="60" as="geometry" />
        </mxCell>
        <mxCell id="NBKUwxWCZF2C23gPfHIj-18" value="template" style="rounded=1;whiteSpace=wrap;html=1;fillColor=#dae8fc;strokeColor=#6c8ebf;" vertex="1" parent="1">
          <mxGeometry x="520" y="260" width="120" height="60" as="geometry" />
        </mxCell>
        <mxCell id="NBKUwxWCZF2C23gPfHIj-19" value="question" style="rounded=1;whiteSpace=wrap;html=1;fillColor=#dae8fc;strokeColor=#6c8ebf;" vertex="1" parent="1">
          <mxGeometry x="330" y="260" width="120" height="60" as="geometry" />
        </mxCell>
        <mxCell id="NBKUwxWCZF2C23gPfHIj-20" value="&lt;font style=&quot;font-size: 12px&quot;&gt;mars-admin-temp&lt;/font&gt;" style="rounded=1;whiteSpace=wrap;html=1;fillColor=#fff2cc;strokeColor=#d6b656;" vertex="1" parent="1">
          <mxGeometry x="160" y="340" width="120" height="60" as="geometry" />
        </mxCell>
        <mxCell id="NBKUwxWCZF2C23gPfHIj-21" value="&lt;span&gt;&lt;font style=&quot;font-size: 12px&quot;&gt;mars-h5-temp&lt;/font&gt;&lt;/span&gt;" style="rounded=1;whiteSpace=wrap;html=1;fillColor=#fff2cc;strokeColor=#d6b656;" vertex="1" parent="1">
          <mxGeometry x="330" y="340" width="120" height="60" as="geometry" />
        </mxCell>
        <mxCell id="NBKUwxWCZF2C23gPfHIj-22" value="&lt;span&gt;&lt;font style=&quot;font-size: 13px&quot;&gt;mars-ssr-temp&lt;/font&gt;&lt;/span&gt;" style="rounded=1;whiteSpace=wrap;html=1;fillColor=#fff2cc;strokeColor=#d6b656;" vertex="1" parent="1">
          <mxGeometry x="520" y="340" width="120" height="60" as="geometry" />
        </mxCell>
        <mxCell id="NBKUwxWCZF2C23gPfHIj-23" value="base-table&lt;br&gt;base-drawer&lt;br&gt;base-dialog" style="rounded=1;whiteSpace=wrap;html=1;fillColor=#f8cecc;strokeColor=#b85450;" vertex="1" parent="1">
          <mxGeometry x="520" y="420" width="120" height="60" as="geometry" />
        </mxCell>
        <mxCell id="NBKUwxWCZF2C23gPfHIj-24" value="base-table&lt;br&gt;base-drawer" style="rounded=1;whiteSpace=wrap;html=1;fillColor=#f8cecc;strokeColor=#b85450;" vertex="1" parent="1">
          <mxGeometry x="330" y="420" width="120" height="60" as="geometry" />
        </mxCell>
        <mxCell id="NBKUwxWCZF2C23gPfHIj-25" value="base-table" style="rounded=1;whiteSpace=wrap;html=1;fillColor=#f8cecc;strokeColor=#b85450;" vertex="1" parent="1">
          <mxGeometry x="160" y="420" width="120" height="60" as="geometry" />
        </mxCell>
        <mxCell id="NBKUwxWCZF2C23gPfHIj-26" value="&lt;span style=&quot;line-height: 120%&quot;&gt;&lt;font style=&quot;font-size: 18px&quot;&gt;核心模块&lt;/font&gt;&lt;/span&gt;" style="text;html=1;align=center;verticalAlign=middle;resizable=0;points=[];autosize=1;strokeColor=none;fillColor=none;fontStyle=0" vertex="1" parent="1">
          <mxGeometry x="40" y="270" width="90" height="20" as="geometry" />
        </mxCell>
        <mxCell id="NBKUwxWCZF2C23gPfHIj-27" value="&lt;span style=&quot;font-size: 18px&quot;&gt;远程仓库&lt;/span&gt;" style="text;html=1;align=center;verticalAlign=middle;resizable=0;points=[];autosize=1;strokeColor=none;fillColor=none;fontStyle=0" vertex="1" parent="1">
          <mxGeometry x="40" y="360" width="90" height="20" as="geometry" />
        </mxCell>
        <mxCell id="NBKUwxWCZF2C23gPfHIj-28" value="&lt;span style=&quot;font-size: 18px&quot;&gt;物料池&lt;/span&gt;" style="text;html=1;align=center;verticalAlign=middle;resizable=0;points=[];autosize=1;strokeColor=none;fillColor=none;fontStyle=0" vertex="1" parent="1">
          <mxGeometry x="50" y="440" width="70" height="20" as="geometry" />
        </mxCell>
      </root>
    </mxGraphModel>
  </diagram>
</mxfile>
